<svg width="24" height="24" viewBox="0 0 24 24" fill="none" xmlns="http://www.w3.org/2000/svg">
<g clip-path="url(#clip0_173_79617)">
<path d="M16.6187 0C16.6746 0 16.7304 0 16.7894 0C16.9264 1.69253 16.2804 2.95719 15.4953 3.87301C14.7249 4.78251 13.67 5.6646 11.9637 5.53076C11.8499 3.86247 12.497 2.69161 13.2811 1.77789C14.0083 0.92636 15.3414 0.168621 16.6187 0Z" fill="white"/>
<path d="M21.7836 17.6169C21.7836 17.6337 21.7836 17.6485 21.7836 17.6643C21.3041 19.1165 20.6201 20.3612 19.7855 21.5162C19.0235 22.5648 18.0898 23.976 16.4225 23.976C14.9819 23.976 14.025 23.0496 12.5485 23.0243C10.9866 22.999 10.1277 23.7989 8.6997 24.0002C8.53635 24.0002 8.373 24.0002 8.21281 24.0002C7.1642 23.8485 6.31793 23.018 5.70141 22.2698C3.88347 20.0587 2.47865 17.2027 2.21729 13.5478C2.21729 13.1895 2.21729 12.8323 2.21729 12.4739C2.32794 9.85821 3.59892 7.73148 5.28829 6.70079C6.17987 6.15277 7.40553 5.6859 8.77031 5.89457C9.35521 5.9852 9.95276 6.18544 10.4765 6.38357C10.9729 6.57432 11.5937 6.91262 12.1817 6.8947C12.5801 6.88311 12.9763 6.67549 13.3779 6.529C14.554 6.10429 15.7069 5.6174 17.2266 5.84609C19.053 6.12221 20.3493 6.93369 21.1502 8.1857C19.6052 9.16897 18.3838 10.6507 18.5925 13.1811C18.778 15.4796 20.1143 16.8244 21.7836 17.6169Z" fill="white"/>
</g>
<defs>
<clipPath id="clip0_173_79617">
<rect width="24" height="24" fill="white"/>
</clipPath>
</defs>
</svg>
