<svg width="42" height="42" viewBox="0 0 42 42" fill="none" xmlns="http://www.w3.org/2000/svg">
<rect width="42" height="42" rx="21" fill="#EA647A"/>
<path fill-rule="evenodd" clip-rule="evenodd" d="M18.5919 30.75H23.4068C26.7879 30.75 28.4784 30.75 29.6928 29.9533C30.2186 29.6084 30.67 29.1652 31.0212 28.6491C31.8327 27.4567 31.8327 25.7969 31.8327 22.4773C31.8327 19.1576 31.8327 17.4978 31.0212 16.3055C30.67 15.7893 30.2186 15.3461 29.6928 15.0012C28.9125 14.4893 27.9356 14.3063 26.4399 14.2409C25.7261 14.2409 25.1116 13.7099 24.9716 13.0227C24.7616 11.992 23.8398 11.25 22.7691 11.25H19.2295C18.1589 11.25 17.2371 11.992 17.0271 13.0227C16.8871 13.7099 16.2726 14.2409 15.5588 14.2409C14.0631 14.3063 13.0862 14.4893 12.3059 15.0012C11.7801 15.3461 11.3287 15.7893 10.9775 16.3055C10.166 17.4978 10.166 19.1576 10.166 22.4773C10.166 25.7969 10.166 27.4567 10.9775 28.6491C11.3287 29.1652 11.7801 29.6084 12.3059 29.9533C13.5203 30.75 15.2108 30.75 18.5919 30.75ZM20.9993 18.0455C18.5064 18.0455 16.4855 20.0296 16.4855 22.4773C16.4855 24.9249 18.5064 26.9091 20.9993 26.9091C23.4923 26.9091 25.5132 24.9249 25.5132 22.4773C25.5132 20.0296 23.4923 18.0455 20.9993 18.0455ZM20.9993 19.8182C19.5036 19.8182 18.291 21.0087 18.291 22.4773C18.291 23.9458 19.5036 25.1364 20.9993 25.1364C22.4951 25.1364 23.7077 23.9458 23.7077 22.4773C23.7077 21.0087 22.4951 19.8182 20.9993 19.8182ZM26.1151 18.9318C26.1151 18.4423 26.5193 18.0455 27.0179 18.0455H28.2216C28.7202 18.0455 29.1243 18.4423 29.1243 18.9318C29.1243 19.4213 28.7202 19.8182 28.2216 19.8182H27.0179C26.5193 19.8182 26.1151 19.4213 26.1151 18.9318Z" fill="white"/>
</svg>
