<svg width="42" height="42" viewBox="0 0 42 42" fill="none" xmlns="http://www.w3.org/2000/svg">
<rect width="42" height="42" rx="21" fill="#7EC56C"/>
<path fill-rule="evenodd" clip-rule="evenodd" d="M23.166 31.8327H18.8327C14.7472 31.8327 12.7044 31.8327 11.4352 30.5635C10.166 29.2943 10.166 27.2515 10.166 23.166V18.8327C10.166 14.7472 10.166 12.7044 11.4352 11.4352C12.7044 10.166 14.7579 10.166 18.865 10.166C19.5215 10.166 20.0475 10.166 20.4902 10.1841C20.4756 10.2707 20.468 10.359 20.4677 10.4483L20.4577 13.5189C20.4576 14.7074 20.4575 15.7578 20.5713 16.6044C20.6947 17.5221 20.978 18.4397 21.7269 19.1886C22.4758 19.9375 23.3933 20.2208 24.311 20.3441C25.1577 20.458 26.2081 20.4579 27.3966 20.4578L27.4993 20.4578H31.7865C31.8327 21.0366 31.8327 21.747 31.8327 22.6925V23.166C31.8327 27.2515 31.8327 29.2943 30.5635 30.5635C29.2943 31.8327 27.2515 31.8327 23.166 31.8327ZM13.6868 23.7077C13.6868 23.259 14.0506 22.8952 14.4993 22.8952H23.166C23.6147 22.8952 23.9785 23.259 23.9785 23.7077C23.9785 24.1564 23.6147 24.5202 23.166 24.5202H14.4993C14.0506 24.5202 13.6868 24.1564 13.6868 23.7077ZM13.6868 27.4993C13.6868 27.0506 14.0506 26.6868 14.4993 26.6868H20.4577C20.9064 26.6868 21.2702 27.0506 21.2702 27.4993C21.2702 27.9481 20.9064 28.3118 20.4577 28.3118H14.4993C14.0506 28.3118 13.6868 27.9481 13.6868 27.4993Z" fill="white"/>
<path d="M28.9637 16.2507L24.675 12.3909C23.4532 11.2913 22.8423 10.7414 22.0927 10.4538L22.0827 13.4161C22.0827 15.9696 22.0827 17.2463 22.8759 18.0395C23.6692 18.8328 24.9459 18.8328 27.4993 18.8328H31.3778C30.985 18.0699 30.2818 17.437 28.9637 16.2507Z" fill="white"/>
</svg>
