<svg width="42" height="42" viewBox="0 0 42 42" fill="none" xmlns="http://www.w3.org/2000/svg">
<rect width="42" height="42" rx="21" fill="#F1C86A"/>
<path d="M27.4993 16.666C27.4993 17.8626 26.5293 18.8327 25.3327 18.8327C24.1361 18.8327 23.166 17.8626 23.166 16.666C23.166 15.4694 24.1361 14.4993 25.3327 14.4993C26.5293 14.4993 27.4993 15.4694 27.4993 16.666Z" fill="white"/>
<path fill-rule="evenodd" clip-rule="evenodd" d="M20.9372 9.35352H21.0615C23.5623 9.3535 25.5221 9.35349 27.0512 9.55907C28.6163 9.7695 29.8513 10.2086 30.8207 11.178C31.7901 12.1474 32.2292 13.3824 32.4396 14.9475C32.6452 16.4766 32.6452 18.4364 32.6452 20.9372V21.0328C32.6452 23.1007 32.6452 24.7935 32.5329 26.1718C32.42 27.5568 32.1888 28.7142 31.6711 29.6755C31.4428 30.0995 31.1623 30.4791 30.8207 30.8207C29.8513 31.7901 28.6163 32.2292 27.0512 32.4396C25.5221 32.6452 23.5623 32.6452 21.0615 32.6452H20.9372C18.4364 32.6452 16.4766 32.6452 14.9475 32.4396C13.3824 32.2292 12.1474 31.7901 11.178 30.8207C10.3186 29.9613 9.87481 28.8917 9.63881 27.5648C9.40698 26.2614 9.36457 24.6397 9.35576 22.6259C9.35352 22.1137 9.35352 21.572 9.35352 21.0004V20.9372C9.3535 18.4364 9.35349 16.4766 9.55907 14.9475C9.7695 13.3824 10.2086 12.1474 11.178 11.178C12.1474 10.2086 13.3824 9.7695 14.9475 9.55907C16.4766 9.35349 18.4364 9.3535 20.9372 9.35352ZM15.1641 11.1696C13.7791 11.3558 12.9442 11.7099 12.327 12.327C11.7099 12.9442 11.3558 13.7791 11.1696 15.1641C10.9802 16.5724 10.9785 18.4229 10.9785 20.9993C10.9785 21.3141 10.9785 21.6184 10.9789 21.9131L12.0634 20.9642C13.0507 20.1004 14.5385 20.1499 15.4661 21.0775L20.1133 25.7247C20.8578 26.4692 22.0297 26.5707 22.8912 25.9653L23.2142 25.7382C24.4538 24.8671 26.1309 24.968 27.2571 25.9816L30.3234 28.7412C30.6321 28.093 30.8154 27.2413 30.9132 26.0398C31.0196 24.735 31.0202 23.1074 31.0202 20.9993C31.0202 18.4229 31.0185 16.5724 30.8291 15.1641C30.6429 13.7791 30.2888 12.9442 29.6717 12.327C29.0545 11.7099 28.2196 11.3558 26.8346 11.1696C25.4263 10.9802 23.5758 10.9785 20.9993 10.9785C18.4229 10.9785 16.5724 10.9802 15.1641 11.1696Z" fill="white"/>
</svg>
