<svg width="42" height="46" viewBox="0 0 42 46" fill="none" xmlns="http://www.w3.org/2000/svg">
<path d="M0.875 45.5H41.125C41.3571 45.5 41.5796 45.4078 41.7437 45.2437C41.9078 45.0796 42 44.8571 42 44.625V42C41.9981 40.048 41.6106 38.1155 40.8598 36.3136C40.109 34.5117 39.0097 32.8759 37.625 31.5V29.75C37.625 28.1255 36.9797 26.5676 35.831 25.419C34.6824 24.2703 33.1245 23.625 31.5 23.625H28.105C29.676 21.9073 30.5713 19.6784 30.625 17.3512C31.0171 17.2128 31.3708 16.9832 31.6568 16.6813C31.9428 16.3794 32.153 16.0139 32.2701 15.6149C32.3871 15.2158 32.4077 14.7947 32.3301 14.3862C32.2525 13.9776 32.079 13.5933 31.8237 13.265L32.165 11.375C32.421 9.99042 32.3702 8.56653 32.016 7.20376C31.6618 5.84098 31.0129 4.57251 30.1151 3.48782C29.2173 2.40312 28.0925 1.52861 26.8199 0.925975C25.5473 0.323338 24.158 0.0072485 22.75 0H13.125C12.8929 0 12.6704 0.0921874 12.5063 0.256282C12.3422 0.420376 12.25 0.642936 12.25 0.875C12.25 1.57119 11.9734 2.23887 11.4812 2.73116C10.9889 3.22344 10.3212 3.5 9.625 3.5H9.51125C9.3756 3.48419 9.23813 3.50036 9.10985 3.5472C8.98157 3.59405 8.86603 3.67027 8.77248 3.76977C8.67894 3.86926 8.60998 3.98928 8.57113 4.1202C8.53228 4.25113 8.52462 4.38933 8.54875 4.52375L10.1762 13.2738C9.92287 13.602 9.75085 13.9855 9.67427 14.3931C9.59769 14.8006 9.61874 15.2204 9.7357 15.6182C9.85265 16.016 10.0622 16.3805 10.3471 16.6817C10.6321 16.9829 10.9843 17.2124 11.375 17.3512C11.4287 19.6784 12.324 21.9073 13.895 23.625H10.5C8.87555 23.625 7.31763 24.2703 6.16897 25.419C5.02031 26.5676 4.375 28.1255 4.375 29.75V31.5C2.99028 32.8759 1.89097 34.5117 1.14019 36.3136C0.389398 38.1155 0.00192016 40.048 0 42V44.625C0 44.8571 0.0921874 45.0796 0.256282 45.2437C0.420376 45.4078 0.642936 45.5 0.875 45.5ZM12.25 43.75H10.5V29.645C11.0694 29.4311 11.6545 29.2614 12.25 29.1375V43.75ZM28 43.75H14V28.875H14.875H15.82C15.972 29.7548 16.3458 30.5814 16.9062 31.2765C17.4665 31.9716 18.1949 32.5123 19.0225 32.8475L18.375 39.2875C18.3619 39.4171 18.3779 39.5479 18.4218 39.6706C18.4657 39.7932 18.5364 39.9044 18.6287 39.9963L20.3787 41.7463C20.4601 41.8283 20.5569 41.8934 20.6635 41.9378C20.7701 41.9822 20.8845 42.0051 21 42.0051C21.1155 42.0051 21.2299 41.9822 21.3365 41.9378C21.4431 41.8934 21.5399 41.8283 21.6213 41.7463L23.3713 39.9963C23.4636 39.9044 23.5343 39.7932 23.5782 39.6706C23.6221 39.5479 23.6381 39.4171 23.625 39.2875L22.9775 32.8475C23.8051 32.5123 24.5335 31.9716 25.0938 31.2765C25.6542 30.5814 26.028 29.7548 26.18 28.875H27.125H28V43.75ZM21 31.5C20.0717 31.5 19.1815 31.1313 18.5251 30.4749C17.8687 29.8185 17.5 28.9283 17.5 28V26.0838C17.7362 26.1713 17.9813 26.2587 18.235 26.3375C20.0392 26.8744 21.9608 26.8744 23.765 26.3375C24.0187 26.2587 24.2638 26.1713 24.5 26.0838V28C24.5 28.9283 24.1313 29.8185 23.4749 30.4749C22.8185 31.1313 21.9283 31.5 21 31.5ZM21.875 39.0513L21 39.9263L20.125 39.0513L20.7375 33.25H21H21.2625L21.875 39.0513ZM31.5 43.75H29.75V29.1375C30.3455 29.2614 30.9306 29.4311 31.5 29.645V43.75ZM40.25 42V43.75H33.25V30.3975C35.3618 31.5118 37.1296 33.181 38.3631 35.2255C39.5966 37.27 40.249 39.6122 40.25 42ZM31.5 25.375C32.6603 25.375 33.7731 25.8359 34.5936 26.6564C35.4141 27.4769 35.875 28.5897 35.875 29.75V29.995C33.3379 28.132 30.2727 27.1266 27.125 27.125H26.25V25.375H31.5ZM13.9125 1.75H22.75C23.9039 1.75584 25.0423 2.01518 26.0849 2.50966C27.1274 3.00414 28.0486 3.72168 28.7832 4.61152C29.5177 5.50136 30.0478 6.54175 30.3358 7.6591C30.6239 8.77644 30.6628 9.94343 30.45 11.0775L30.3188 11.7513C29.8638 10.0013 29.4963 9.625 28.875 9.625C28.5095 9.62181 28.1487 9.54234 27.8157 9.39166C27.4828 9.24099 27.1849 9.02244 26.9412 8.75C26.1843 7.92796 25.2661 7.27064 24.2439 6.81902C23.2217 6.3674 22.1175 6.13115 21 6.125H20.895C19.7998 6.11866 18.7163 6.35008 17.7192 6.80329C16.7222 7.25649 15.8354 7.92068 15.12 8.75C14.8695 9.03016 14.5617 9.25327 14.2176 9.40422C13.8734 9.55518 13.5008 9.63047 13.125 9.625C12.5037 9.625 12.1363 9.9925 11.6813 11.7513L10.4475 5.17125C11.2991 5.00848 12.083 4.59637 12.7 3.98724C13.3169 3.3781 13.7389 2.59941 13.9125 1.75ZM13.125 17.115V16.625C13.125 16.3929 13.0328 16.1704 12.8687 16.0063C12.7046 15.8422 12.4821 15.75 12.25 15.75C12.0179 15.75 11.7954 15.6578 11.6313 15.4937C11.4672 15.3296 11.375 15.1071 11.375 14.875C11.375 14.6429 11.4672 14.4204 11.6313 14.2563C11.7954 14.0922 12.0179 14 12.25 14C12.4535 14.0045 12.6522 13.938 12.8119 13.8118C12.9716 13.6856 13.0823 13.5078 13.125 13.3087C13.2672 12.6471 13.4424 11.9929 13.65 11.3487C14.7437 11.2151 15.7483 10.6785 16.4675 9.84375C17.02 9.21584 17.7017 8.7148 18.4659 8.37499C19.2301 8.03517 20.0587 7.86461 20.895 7.875H21C21.8782 7.88387 22.745 8.07422 23.5461 8.4341C24.3471 8.79398 25.0652 9.31562 25.655 9.96625C26.3633 10.7429 27.3248 11.2423 28.3675 11.375C28.5785 12.0182 28.7537 12.6725 28.8925 13.335C28.9398 13.5262 29.0501 13.6958 29.2057 13.8165C29.3613 13.9372 29.5531 14.0018 29.75 14C29.9821 14 30.2046 14.0922 30.3687 14.2563C30.5328 14.4204 30.625 14.6429 30.625 14.875C30.625 15.1071 30.5328 15.3296 30.3687 15.4937C30.2046 15.6578 29.9821 15.75 29.75 15.75C29.5179 15.75 29.2954 15.8422 29.1313 16.0063C28.9672 16.1704 28.875 16.3929 28.875 16.625V17.115C28.875 19.2036 28.0453 21.2066 26.5685 22.6835C25.0916 24.1603 23.0886 24.99 21 24.99C18.9114 24.99 16.9084 24.1603 15.4315 22.6835C13.9547 21.2066 13.125 19.2036 13.125 17.115ZM6.125 29.75C6.125 28.5897 6.58594 27.4769 7.40641 26.6564C8.22688 25.8359 9.33968 25.375 10.5 25.375H15.75V27.125H14.875C11.7273 27.1266 8.66214 28.132 6.125 29.995V29.75ZM1.75 42C1.75103 39.6122 2.40342 37.27 3.63689 35.2255C4.87036 33.181 6.63819 31.5118 8.75 30.3975V43.75H1.75V42Z" fill="#1F2230"/>
</svg>
