<svg width="47" height="46" viewBox="0 0 47 46" fill="none" xmlns="http://www.w3.org/2000/svg">
<path d="M28.0559 8.07166H39.785C40.1576 8.07166 40.4595 7.76967 40.4595 7.39716C40.4595 7.02465 40.1576 6.72266 39.785 6.72266H28.0559C27.6833 6.72266 27.3813 7.02465 27.3813 7.39716C27.3813 7.76967 27.6833 8.07166 28.0559 8.07166Z" fill="#181A25"/>
<path d="M28.0559 11.7103H39.785C40.1576 11.7103 40.4595 11.4083 40.4595 11.0358C40.4595 10.6633 40.1576 10.3613 39.785 10.3613H28.0559C27.6833 10.3613 27.3813 10.6633 27.3813 11.0358C27.3813 11.4083 27.6833 11.7103 28.0559 11.7103Z" fill="#181A25"/>
<path d="M28.0559 15.349H32.1361C32.5087 15.349 32.8106 15.047 32.8106 14.6745C32.8106 14.302 32.5087 14 32.1361 14H28.0559C27.6833 14 27.3813 14.302 27.3813 14.6745C27.3813 15.047 27.6833 15.349 28.0559 15.349Z" fill="#181A25"/>
<path d="M44.4613 0H13.8734C12.9995 0 12.2886 0.710927 12.2886 1.58482V2.45942C12.2886 3.33331 12.9995 4.04424 13.8734 4.04424H14.0597V8.12049C14.0597 8.493 14.3616 8.795 14.7342 8.795C15.1068 8.795 15.4087 8.493 15.4087 8.12049V4.04424H42.926V20.282C42.926 20.4609 42.7805 20.6063 42.6017 20.6063H32.2211L33.5849 17.004C33.7168 16.6556 33.5413 16.2663 33.1929 16.1344C32.8447 16.0025 32.4552 16.1779 32.3232 16.5264L30.7787 20.6063H24.1691C23.7965 20.6063 23.4946 20.9083 23.4946 21.2808C23.4946 21.6533 23.7965 21.9553 24.1691 21.9553H30.268L29.0281 25.2306C28.6548 25.2635 28.2899 25.4173 27.9956 25.6931L26.7638 26.8474C26.7585 26.8525 26.7533 26.8575 26.7481 26.8626C26.3782 27.2325 26.1456 27.7027 26.0754 28.2221C26.0371 28.5054 26.0532 28.3545 25.3424 30.4988C25.0903 30.6616 24.8899 30.9076 24.787 31.2134L23.9775 33.6253C22.8929 32.3507 21.4979 31.391 19.9158 30.8356C20.89 30.4496 21.7042 29.7362 22.2285 28.7831C22.9424 27.485 23.0001 25.9705 22.3876 24.6297L22.3644 24.5793C21.3994 22.5002 21.7787 20.7228 21.6911 18.9989C21.6911 17.6941 21.3973 16.4568 20.8734 15.3489H23.6235C24.4579 15.3489 25.1367 14.6701 25.1367 13.8358V8.23579C25.1367 7.40147 24.4579 6.72265 23.6235 6.72265H19.5974C18.7631 6.72265 18.0843 7.40147 18.0843 8.23579V12.0181C16.6837 11.0201 14.9714 10.4326 13.1245 10.4326C8.401 10.4326 4.55803 14.2755 4.55803 18.9988L4.55695 21.461C4.55623 23.2715 3.87426 24.5924 3.8623 24.6279C3.24895 25.9707 3.3066 27.4852 4.02059 28.7833C4.54517 29.7371 5.36006 30.4508 6.33512 30.8367C2.56348 32.1587 0 35.7162 0 39.7827V43.6947C0 44.9658 1.03406 45.9999 2.30519 45.9999H24.5112C26.019 45.9999 27.3036 44.9223 27.5659 43.4375L29.5023 32.4725C29.5455 32.2274 29.5202 31.986 29.441 31.7672L29.5133 31.3578C29.5893 30.9277 29.7929 30.5375 30.1023 30.2294C30.1034 30.2284 30.1094 30.2223 30.1105 30.2212C30.1129 30.2187 30.1155 30.2162 30.118 30.2137L30.624 29.6868C31.6186 28.6514 31.7322 26.8766 30.3124 25.648L31.7103 21.9555H42.6016C43.5243 21.9555 44.2749 21.2048 44.2749 20.2822V4.04424H44.4613C45.3351 4.04424 46.0461 3.33331 46.0461 2.45942V1.58482C46.0462 0.710927 45.3352 0 44.4613 0ZM21.1398 25.1454L21.1596 25.1885C21.5939 26.1393 21.5527 27.2126 21.0464 28.1331C20.5512 29.0333 19.6919 29.6308 18.6864 29.7762L16.3104 28.5921V27.2282C16.6987 26.9886 17.0632 26.7049 17.3956 26.377C18.072 25.7098 18.5718 24.9101 18.8736 24.0363C19.0024 24.02 19.7816 24.1422 20.5938 23.5717C20.7257 24.1184 20.9085 24.6471 21.1398 25.1454ZM17.814 33.8425C18.0553 34.142 18.193 34.1912 18.1521 34.3366C17.8409 35.4447 16.4093 37.2044 15.0236 38.7031C15.5002 37.5997 16.002 36.3328 16.4343 34.6891C16.8134 33.2475 16.8836 31.7423 16.6466 30.2669L18.1153 30.9989C18.171 31.0267 18.1932 31.0719 18.2021 31.1051C18.2062 31.1205 18.2087 31.1398 18.2073 31.161C18.207 31.1637 18.2068 31.1664 18.2066 31.1692C18.2039 31.1915 18.1965 31.2158 18.1801 31.2405L17.6804 31.9954C17.3001 32.5695 17.3552 33.3291 17.814 33.8425ZM8.56854 31.9952L8.06869 31.2403C8.0525 31.2159 8.04513 31.1919 8.04234 31.1697C8.04207 31.1665 8.0418 31.1633 8.04144 31.1599C8.04018 31.1392 8.04252 31.1201 8.04657 31.105C8.05322 31.0802 8.06743 31.0486 8.09738 31.0226C8.09855 31.0217 8.0999 31.021 8.10107 31.0201C8.11042 31.0124 8.12085 31.005 8.13335 30.9988L9.60206 30.2668C9.36509 31.7423 9.43533 33.2474 9.8144 34.6889C10.2466 36.3327 10.7485 37.5997 11.225 38.703C9.83931 37.2042 8.40774 35.4446 8.09657 34.3364C8.05574 34.1912 8.19478 34.14 8.43445 33.8424C8.89365 33.3291 8.94869 32.5696 8.56854 31.9952ZM11.2247 29.2219C11.241 29.1683 11.2875 28.9059 11.2875 28.6213V27.8461C12.4727 28.2202 13.7573 28.2262 14.9614 27.8461V28.6213C14.9614 28.8921 15.0066 29.1639 15.0242 29.2219C15.4086 30.4915 15.5229 31.8133 15.3663 33.105C14.6478 33.3584 13.8955 33.4875 13.1244 33.4875C12.3534 33.4875 11.6012 33.3584 10.8826 33.105C10.7261 31.8134 10.8403 30.4915 11.2247 29.2219ZM8.39065 22.1218V19.9119C8.39065 19.6113 8.64049 19.3581 8.95769 19.3709C11.0787 19.4504 13.1064 18.6709 14.6254 17.1858C15.2114 16.6128 16.1359 16.7476 16.5762 17.3891C16.9125 17.8793 17.2957 18.3569 17.715 18.8085C17.8074 18.908 17.8583 19.0382 17.8583 19.1752V22.1218C17.8169 24.6908 15.6943 26.7799 13.1244 26.7799C10.5546 26.7799 8.43202 24.6908 8.39065 22.1218ZM11.1888 34.6027C11.8185 34.7576 12.4658 34.8365 13.1244 34.8365C13.783 34.8365 14.4303 34.7576 15.06 34.6027C14.561 36.4197 13.9669 37.7638 13.4399 38.9548C13.3322 39.1983 13.2266 39.4375 13.1244 39.6748C13.0222 39.4375 12.9166 39.1981 12.8088 38.9546C12.2817 37.7636 11.6877 36.4195 11.1888 34.6027ZM20.343 21.4695C20.3397 22.1146 19.8351 22.6557 19.1735 22.6847C19.2337 22.1067 19.1965 21.8725 19.2072 20.2432C19.8381 20.2885 20.3382 20.8129 20.343 21.454V21.4616C20.343 21.4642 20.343 21.4669 20.343 21.4695ZM19.4332 8.23579C19.4332 8.14531 19.5068 8.07166 19.5973 8.07166H23.6234C23.7139 8.07166 23.7876 8.14531 23.7876 8.23579V13.8361C23.7876 13.9265 23.7139 14.0002 23.6234 14.0002H20.0768C19.8778 13.7242 19.6629 13.4604 19.4333 13.2104V8.23579H19.4332ZM5.90695 18.9991C5.90695 15.0193 9.14475 11.7816 13.1245 11.7816C17.1043 11.7816 20.342 15.0193 20.342 18.9994L20.3421 19.1994C19.996 19.0118 19.6022 18.9019 19.1841 18.8914C19.1279 18.5186 18.9634 18.1705 18.7037 17.8908C18.7036 17.8908 18.7036 17.8908 18.7036 17.8908C18.3292 17.4875 17.9876 17.062 17.6885 16.626C16.7583 15.2704 14.8461 15.0835 13.6823 16.2214C12.4306 17.4451 10.7585 18.0888 9.00823 18.0229C8.33229 17.9973 7.70725 18.3228 7.33888 18.897C7.2189 18.9094 6.6096 18.8237 5.90677 19.2033L5.90695 18.9991ZM7.07393 22.6702C6.41903 22.6455 5.90695 22.1102 5.90713 21.4589C5.9074 20.8167 6.4095 20.2909 7.04155 20.2501C7.05226 21.9001 7.01601 22.1004 7.07393 22.6702ZM5.2025 28.1331C4.19146 26.2949 5.27291 25.1607 5.65711 23.5624C6.46175 24.1248 7.24139 24.0053 7.37008 24.0214C7.67136 24.901 8.17292 25.7061 8.85318 26.377C9.18567 26.7049 9.55017 26.9886 9.93842 27.2282V28.5921L7.56245 29.7762C6.5569 29.6308 5.69758 29.0333 5.2025 28.1331ZM26.2374 43.2029C26.0892 44.042 25.3632 44.6509 24.5112 44.6509C23.793 44.6509 6.3443 44.6509 5.79426 44.6509V41.7218C5.79426 41.3493 5.49235 41.0473 5.11976 41.0473C4.74716 41.0473 4.44525 41.3493 4.44525 41.7218V44.6509H2.30519C1.77799 44.6509 1.34901 44.2219 1.34901 43.6947V39.7827C1.34901 36.2235 3.63837 33.1191 6.98184 32.0425L7.44374 32.74C7.48565 32.8032 7.47953 32.8868 7.42899 32.9434C7.33501 33.0965 6.51256 33.685 6.79801 34.7013C7.41091 36.8836 11.1155 40.6625 12.6726 42.0707C12.9339 42.3064 13.3283 42.3006 13.5824 42.0655C14.1079 41.5795 18.7368 37.2439 19.4509 34.7014C19.739 33.6756 18.9216 33.1091 18.8198 32.9435C18.7693 32.887 18.7633 32.8033 18.8052 32.7401L19.2665 32.0431C20.9714 32.5926 22.437 33.682 23.46 35.167L21.4935 41.0257C21.375 41.3789 21.5652 41.7613 21.9183 41.8798C22.2716 41.9983 22.6539 41.8081 22.7724 41.4549L26.0659 31.6431C26.0694 31.6324 26.081 31.6265 26.0916 31.6295L28.1588 32.2138C28.1693 32.2168 28.1758 32.2271 28.1739 32.2379L26.2374 43.2029ZM29.651 28.7521L29.1505 29.2735C28.7127 29.7093 28.4051 30.2456 28.2487 30.8373L26.7903 30.4252C27.2787 28.928 27.3479 28.8798 27.4122 28.4027C27.4421 28.1818 27.5398 27.9817 27.6951 27.8235L28.918 26.6775C29.0681 26.5368 29.3012 26.539 29.4486 26.6827L29.6196 26.8494C30.1491 27.3654 30.1633 28.219 29.651 28.7521ZM44.6972 2.45942C44.6972 2.58947 44.5914 2.69523 44.4613 2.69523H13.8734C13.7433 2.69523 13.6376 2.58947 13.6376 2.45942V1.58482C13.6376 1.45486 13.7433 1.34901 13.8734 1.34901H44.4613C44.5914 1.34901 44.6972 1.45477 44.6972 1.58482V2.45942Z" fill="#181A25"/>
</svg>
