<svg width="24" height="24" viewBox="0 0 24 24" fill="none" xmlns="http://www.w3.org/2000/svg">
<g clip-path="url(#clip0_237_12955)">
<path d="M12 0C8.71345 0 5.7359 1.32121 3.56866 3.46189C3.55514 3.47493 3.54114 3.48845 3.52761 3.50245C3.49526 3.53433 3.46339 3.56668 3.432 3.59903C3.39095 3.64056 3.35039 3.68209 3.31079 3.72459C3.28279 3.75356 3.25574 3.78254 3.22822 3.81151C2.29091 4.82463 1.58733 6.07871 1.03635 7.36515C0.414858 8.81481 0.311035 10.3813 0.311035 12.0584C0.311035 18.6857 5.37276 23.6562 12 23.6562C13.795 23.6562 15.4059 23.4872 16.9348 22.7812C18.3139 22.1442 19.6371 21.3643 20.6792 20.2865C20.7178 20.246 20.7564 20.2054 20.7941 20.1643C20.8641 20.0895 20.9327 20.0137 21.0003 19.9369C21.0312 19.9016 21.0626 19.8659 21.093 19.8302L21.1031 19.8186L21.1041 19.8176C22.9092 17.718 24 14.9862 24 12C24 5.37272 18.6273 0 12 0ZM11.9865 16.0853L8.03305 11.8281L12.2642 7.59694L16.3693 11.7025L11.9865 16.0853Z" fill="#FFBF54"/>
<path d="M21.1041 19.8174C18.9035 22.3777 15.641 23.9997 12 23.9997C5.37272 23.9997 0 18.627 0 11.9997C0 8.65712 1.36708 5.6337 3.57199 3.45776C1.76692 5.55788 0.676056 8.28915 0.676056 11.2754C0.676056 17.9027 6.04877 23.2754 12.6761 23.2754C15.9607 23.2754 18.9368 21.9556 21.1041 19.8174Z" fill="#FFA442"/>
<path d="M19.1197 4.88026C15.1943 0.954302 8.80651 0.954302 4.88104 4.88026C4.79653 4.96476 4.71444 5.04976 4.63379 5.13619C4.63379 5.13619 4.51645 5.28155 4.45271 5.3535C0.981639 9.29153 1.20329 15.1824 4.97568 18.9543C8.90116 22.8803 15.1243 23.0343 19.0497 19.1083C19.2815 18.877 19.5616 18.6404 19.7659 18.3927C19.8113 18.3376 19.9078 18.2329 19.9078 18.2329C23.0254 14.2847 22.7627 8.52275 19.1197 4.88026ZM11.9869 16.0849L8.03339 11.8277L12.2645 7.59656L16.3696 11.7021L11.9869 16.0849Z" fill="#FFA442"/>
<path d="M19.932 18.2018C19.6829 18.5201 19.412 18.8267 19.1193 19.1193C15.1939 23.0453 8.80609 23.0453 4.88062 19.1193C1.03386 15.2731 0.956111 9.06348 4.64738 5.12207C1.55587 9.06927 1.82678 14.8104 5.4601 18.4433C9.38557 22.3692 15.7733 22.3692 19.6988 18.4433C19.778 18.3641 19.8562 18.2834 19.932 18.2018Z" fill="#FF8A3C"/>
<path d="M17.361 11.2149L12.785 6.63895C12.3514 6.20531 11.6483 6.20531 11.2146 6.63895L6.63871 11.2149C6.20507 11.6485 6.20507 12.3516 6.63871 12.7853L11.2146 17.3612C11.6483 17.7948 12.3514 17.7948 12.785 17.3612L17.361 12.7853C17.7946 12.3516 17.7946 11.6485 17.361 11.2149ZM15.3463 12.0682L12.0679 15.3466C12.0303 15.3842 11.9694 15.3842 11.9317 15.3466L8.65336 12.0682C8.61569 12.0305 8.61569 11.9697 8.65336 11.932L11.9317 8.6536C11.9694 8.61593 12.0303 8.61593 12.0679 8.6536L15.3463 11.932C15.384 11.9697 15.384 12.0305 15.3463 12.0682Z" fill="#FFBF54"/>
<path d="M6.80734 8.85568C6.52446 9.13856 6.06585 9.13856 5.78297 8.85568L4.95191 8.02462C4.66903 7.74174 4.66903 7.28313 4.95191 7.00025C5.23479 6.71737 5.6934 6.71737 5.97628 7.00025L6.80734 7.83131C7.09018 8.11419 7.09018 8.5728 6.80734 8.85568Z" fill="#FFBF54"/>
<path d="M8.85617 6.8071C8.57329 7.08998 8.11468 7.08998 7.8318 6.8071L7.00074 5.97603C6.71785 5.69315 6.71785 5.23454 7.00074 4.95166C7.28362 4.66878 7.74222 4.66878 8.02511 4.95166L8.85617 5.78273C9.13905 6.06556 9.13905 6.52422 8.85617 6.8071Z" fill="#FFBF54"/>
<path d="M8.85617 17.1931C9.13905 17.476 9.13905 17.9346 8.85617 18.2175L8.02511 19.0485C7.74222 19.3314 7.28362 19.3314 7.00074 19.0485C6.71785 18.7656 6.71785 18.307 7.00074 18.0241L7.8318 17.1931C8.11468 16.9102 8.57329 16.9102 8.85617 17.1931Z" fill="#FFBF54"/>
<path d="M6.80734 15.1443C7.09022 15.4272 7.09022 15.8858 6.80734 16.1687L5.97628 16.9997C5.6934 17.2826 5.23479 17.2826 4.95191 16.9997C4.66903 16.7168 4.66903 16.2582 4.95191 15.9754L5.78297 15.1443C6.06581 14.8614 6.52446 14.8614 6.80734 15.1443Z" fill="#FFBF54"/>
<path d="M17.1926 15.1443C17.4755 14.8614 17.9341 14.8614 18.217 15.1443L19.048 15.9754C19.3309 16.2582 19.3309 16.7168 19.048 16.9997C18.7651 17.2826 18.3065 17.2826 18.0237 16.9997L17.1926 16.1687C16.9098 15.8858 16.9098 15.4272 17.1926 15.1443Z" fill="#FFBF54"/>
<path d="M15.1443 17.1929C15.4272 16.91 15.8858 16.91 16.1687 17.1929L16.9997 18.0239C17.2826 18.3068 17.2826 18.7654 16.9997 19.0483C16.7168 19.3312 16.2582 19.3312 15.9754 19.0483L15.1443 18.2172C14.8614 17.9344 14.8614 17.4758 15.1443 17.1929Z" fill="#FFBF54"/>
<path d="M15.1443 6.8071C14.8614 6.52422 14.8614 6.06561 15.1443 5.78273L15.9754 4.95166C16.2582 4.66878 16.7168 4.66878 16.9997 4.95166C17.2826 5.23454 17.2826 5.69315 16.9997 5.97603L16.1687 6.8071C15.8858 7.08993 15.4272 7.08993 15.1443 6.8071Z" fill="#FFBF54"/>
<path d="M17.1926 8.85568C16.9097 8.5728 16.9097 8.11419 17.1926 7.83131L18.0237 7.00025C18.3066 6.71737 18.7652 6.71737 19.0481 7.00025C19.3309 7.28313 19.3309 7.74174 19.0481 8.02462L18.217 8.85568C17.9342 9.13856 17.4755 9.13856 17.1926 8.85568Z" fill="#FFBF54"/>
<g clip-path="url(#clip1_237_12955)">
<path d="M24 12C24 18.6274 18.6274 24 12 24C8.50628 24 5.36131 22.5071 3.16849 20.1242C2.59249 19.4988 2.08261 18.8116 1.64865 18.0744C0.60098 16.2926 0 14.2163 0 12C0 5.37257 5.37257 0 12 0C14.2168 0 16.2931 0.600979 18.0744 1.64914C18.8116 2.08261 19.4983 2.59249 20.1238 3.16898C22.5066 5.36082 24 8.50628 24 12Z" fill="#F0CD00"/>
<path d="M24.0002 12C24.0002 18.478 18.8676 23.757 12.4469 23.9916C6.02613 23.757 0.893555 18.478 0.893555 12C0.893555 5.52193 6.02613 0.242913 12.4469 0.00830078C18.8676 0.242913 24.0002 5.52193 24.0002 12Z" fill="#FFDE50"/>
<path d="M20.124 3.16901L3.16876 20.1243C2.59276 19.4988 2.08288 18.8116 1.64893 18.0745L18.0747 1.64917C18.8119 2.08264 19.4986 2.59252 20.124 3.16901Z" fill="#FFEA94"/>
<path d="M23.1727 7.61291L7.61291 23.1727C6.51136 22.7398 5.48916 22.1486 4.57471 21.4271L21.4276 4.57422C22.1491 5.48867 22.7403 6.51087 23.1727 7.61291Z" fill="#FFEA94"/>
<path d="M21.3248 11.9998C21.3248 17.1495 17.1497 21.3245 12 21.3245C10.2064 21.3245 8.53129 20.8181 7.10941 19.9404C6.48982 19.5583 5.91872 19.1052 5.40639 18.5929C5.02974 18.2168 4.68493 17.8078 4.37684 17.3714C3.95268 16.7704 3.59758 16.117 3.32378 15.423C2.91823 14.3968 2.68999 13.2811 2.67627 12.1144C2.67529 12.0762 2.67529 12.038 2.67529 11.9998C2.67529 6.85007 6.84982 2.67505 12 2.67505C12.0382 2.67505 12.0769 2.67505 12.1151 2.67603C13.2818 2.68974 14.3971 2.91848 15.4232 3.32354C16.1173 3.59782 16.7706 3.95244 17.3716 4.3766C17.808 4.68517 18.2165 5.0295 18.5932 5.40615C19.1055 5.91799 19.5586 6.48958 19.9406 7.10917C20.8183 8.53105 21.3248 10.2062 21.3248 11.9998Z" fill="#FAA300"/>
<path d="M18.5932 5.40615L5.40639 18.5929C5.02974 18.2168 4.68493 17.8078 4.37684 17.3714C3.95268 16.7704 3.59758 16.117 3.32378 15.423C2.91823 14.3968 2.68999 13.2811 2.67627 12.1144C2.67529 12.0762 2.67529 12.038 2.67529 11.9998C2.67529 6.85007 6.84982 2.67505 12 2.67505C12.0382 2.67505 12.0769 2.67505 12.1151 2.67603C13.2818 2.68974 14.3971 2.91848 15.4232 3.32354C16.1173 3.59782 16.7706 3.95244 17.3716 4.3766C17.808 4.68517 18.2165 5.0295 18.5932 5.40615Z" fill="#FFBD00"/>
<path d="M21.3249 11.9998C21.3249 17.1495 17.1499 21.3245 12.0002 21.3245C11.8233 21.3245 11.648 21.3196 11.4736 21.3098C16.3784 21.037 20.2713 16.9727 20.2713 11.9998C20.2713 7.02689 16.3784 2.96256 11.4736 2.68974C11.648 2.67995 11.8233 2.67505 12.0002 2.67505C17.1499 2.67505 21.3249 6.85007 21.3249 11.9998Z" fill="#F68E00"/>
</g>
<path d="M10.3916 11.9805C10.3916 12.3782 10.3916 12.7913 10.3916 13.2044C9.59606 13.2044 9.19829 13.2044 8.41041 13.2044V13.9616H10.231C10.231 14.3671 10.231 14.7725 10.231 15.1779H8.41041C8.41041 15.4915 8.41041 15.7975 8.41041 16.1188C9.19829 16.1188 9.65725 16.1188 10.4604 16.1188C10.4604 16.5165 10.4604 16.9296 10.4604 17.335C9.20594 17.335 8.28802 17.335 7.04883 17.335C7.04883 15.5451 7.04883 13.7551 7.04883 11.9805C8.28802 11.9805 9.1371 11.9805 10.3916 11.9805Z" fill="#F68E00"/>
<path d="M14.9322 17.335C14.4733 17.335 14.0143 17.335 13.563 17.335C13.563 15.5527 13.563 13.7704 13.563 11.9805C14.3356 11.9805 15.1311 11.9805 15.919 11.9805C18.4815 11.9881 18.4815 15.9658 15.919 15.9658H14.9322V17.335ZM15.9113 14.7342C16.661 14.7342 16.7069 13.212 15.9113 13.2044C15.5901 13.1967 15.2458 13.2044 14.9322 13.2044C14.9322 13.6404 14.9322 14.2982 14.9322 14.7342H15.9113Z" fill="#F68E00"/>
<path d="M15.7817 7.17017C16.0138 7.16346 16.2336 7.29258 16.3374 7.50708L16.9956 8.86938C17.1388 9.16645 17.0133 9.52275 16.7163 9.66626C16.4192 9.80977 16.062 9.68605 15.9185 9.38892L15.772 9.08716L12.4897 14.4973L14.2261 17.1282V17.3352H12.7876L11.77 15.6526H11.7241L10.6997 17.3352H9.26904V17.1282L10.9976 14.4973L9.45264 12.1868V11.9807H10.8521L11.7241 13.3723H11.7632L14.561 8.62427L14.4341 8.65063C14.1105 8.71554 13.7949 8.50549 13.73 8.18188C13.6655 7.85857 13.8755 7.54372 14.1987 7.47876L15.6812 7.18091L15.7817 7.17017Z" fill="#F68E00"/>
<path d="M12.6654 11.381C12.7386 11.4117 12.8306 11.4285 12.8939 11.4777C12.9964 11.5574 12.9882 11.7233 12.8409 11.7364C12.7278 11.7465 12.4825 11.7482 12.3713 11.7361C12.2366 11.7215 12.2235 11.5964 12.2263 11.4879C12.2309 11.3079 12.2524 11.1036 12.2658 10.9216C12.2724 10.831 12.288 10.7401 12.2936 10.6495C12.2397 10.6231 11.8181 10.5179 11.7973 10.5328C11.7637 10.6281 11.7222 10.7207 11.6805 10.8126C11.5035 11.2028 11.3273 11.5935 11.1427 11.9799V11.9958C11.2217 12.1072 11.2664 12.409 11.0514 12.3716C10.9703 12.3576 10.8152 12.179 10.7642 12.1097C10.7463 12.0853 10.7148 12.0465 10.7173 12.0164C10.8006 11.7401 10.889 11.4653 10.9652 11.1868C11.1209 10.6176 11.209 10.0294 11.421 9.47723L11.3349 9.54398C11.1491 9.71579 10.9962 9.91681 10.8302 10.107C10.8533 10.1942 10.8631 10.2678 10.8245 10.3526C10.7478 10.521 10.4718 10.4835 10.4297 10.3134C10.4013 10.1985 10.467 10.1117 10.5202 10.015C10.6861 9.71335 11.0416 9.16461 11.3278 8.98595C11.6628 8.77667 11.9001 8.88552 12.2529 8.85443C12.6464 8.81972 12.9004 8.42777 13.1089 8.13388C13.2218 7.97458 13.3398 7.7553 13.459 7.61261C13.4946 7.57003 13.5278 7.54634 13.5791 7.58491C13.6756 7.65755 13.5266 7.78773 13.5025 7.86659C13.5718 7.93932 13.6775 8.03109 13.6438 8.14498C13.6258 8.20597 13.5182 8.34292 13.4764 8.40148C13.247 8.72299 12.997 9.04419 12.6574 9.25371C12.5921 9.54272 12.5182 9.83023 12.424 10.111C12.5359 10.1953 12.8422 10.2579 12.8658 10.4199C12.8983 10.6429 12.705 11.069 12.668 11.3108C12.6644 11.3342 12.6619 11.3574 12.6654 11.3811V11.381Z" fill="#F68E00"/>
<path d="M12.1549 7.62963C12.4315 7.60846 12.7034 7.82018 12.7273 8.10352C12.7724 8.63731 12.1093 8.90215 11.778 8.49217C11.5053 8.15468 11.7292 7.66214 12.155 7.62955L12.1549 7.62963Z" fill="#F68E00"/>
<path d="M14.3346 6.89235C14.0949 6.9426 13.9075 7.12995 13.8573 7.36966C13.8511 7.39909 13.8252 7.42017 13.7951 7.42017C13.765 7.42017 13.7391 7.39909 13.7329 7.36966C13.6826 7.12995 13.4953 6.9426 13.2556 6.89236C13.2262 6.88619 13.2051 6.86023 13.2051 6.83016C13.2051 6.80009 13.2262 6.77414 13.2556 6.76797C13.4953 6.71772 13.6826 6.53037 13.7329 6.29066C13.7391 6.26123 13.765 6.24015 13.7951 6.24015C13.8252 6.24015 13.8511 6.26123 13.8573 6.29066C13.9075 6.53037 14.0949 6.71772 14.3346 6.76796C14.364 6.77412 14.3851 6.80008 14.3851 6.83015C14.3851 6.86022 14.364 6.88618 14.3346 6.89235Z" fill="#F68E00"/>
<path d="M14.4264 6.08178C14.3135 6.10545 14.2252 6.19372 14.2016 6.30666C14.1954 6.33609 14.1694 6.35718 14.1394 6.35718C14.1093 6.35718 14.0833 6.3361 14.0772 6.30667C14.0535 6.19373 13.9652 6.10546 13.8523 6.08178C13.8228 6.07561 13.8018 6.04966 13.8018 6.01959C13.8018 5.98951 13.8228 5.96356 13.8523 5.95739C13.9652 5.93371 14.0535 5.84544 14.0772 5.7325C14.0833 5.70307 14.1093 5.68198 14.1394 5.68198C14.1694 5.68198 14.1954 5.70306 14.2015 5.7325C14.2252 5.84544 14.3135 5.93371 14.4264 5.95739C14.4559 5.96355 14.477 5.98951 14.477 6.01958C14.477 6.04965 14.4559 6.07561 14.4264 6.08178Z" fill="#F68E00"/>
<path d="M15.0631 6.5193C14.9105 6.5513 14.7911 6.67062 14.7591 6.82327C14.753 6.8527 14.727 6.87378 14.697 6.87378C14.6669 6.87378 14.6409 6.8527 14.6348 6.82327C14.6028 6.67062 14.4834 6.5513 14.3308 6.51931C14.3014 6.51314 14.2803 6.48718 14.2803 6.45711C14.2803 6.42704 14.3014 6.40109 14.3308 6.39491C14.4834 6.36291 14.6027 6.2436 14.6347 6.09095C14.6409 6.06152 14.6669 6.04043 14.6969 6.04043C14.727 6.04043 14.753 6.06151 14.7591 6.09095C14.7911 6.2436 14.9105 6.36291 15.0631 6.39491C15.0925 6.40108 15.1136 6.42703 15.1136 6.4571C15.1136 6.48717 15.0925 6.51313 15.0631 6.5193Z" fill="#F68E00"/>
<path d="M10.6919 11.6055C10.6919 12.0032 10.6919 12.4163 10.6919 12.8294C9.89635 12.8294 9.49858 12.8294 8.7107 12.8294V13.5866H10.5312C10.5312 13.9921 10.5312 14.3975 10.5312 14.8029H8.7107C8.7107 15.1165 8.7107 15.4225 8.7107 15.7438C9.49858 15.7438 9.95755 15.7438 10.7607 15.7438C10.7607 16.1415 10.7607 16.5546 10.7607 16.96C9.50623 16.96 8.58831 16.96 7.34912 16.96C7.34912 15.1701 7.34912 13.3801 7.34912 11.6055C8.58831 11.6055 9.43739 11.6055 10.6919 11.6055Z" fill="#FFEA94"/>
<path d="M15.2325 16.96C14.7736 16.96 14.3146 16.96 13.8633 16.96C13.8633 15.1777 13.8633 13.3954 13.8633 11.6055C14.6359 11.6055 15.4314 11.6055 16.2193 11.6055C18.7818 11.6131 18.7818 15.5908 16.2193 15.5908H15.2325V16.96ZM16.2116 14.3592C16.9613 14.3592 17.0072 12.837 16.2116 12.8294C15.8904 12.8217 15.5461 12.8294 15.2325 12.8294C15.2325 13.2654 15.2325 13.9232 15.2325 14.3592H16.2116Z" fill="#FFEA94"/>
<path d="M16.083 6.79517C16.3151 6.78852 16.535 6.91847 16.6387 7.13306L17.2959 8.49438C17.4392 8.79149 17.3146 9.14869 17.0176 9.29224C16.7204 9.43575 16.3633 9.31105 16.2197 9.01392L16.0732 8.71118L12.79 14.1223L14.5264 16.7532V16.9602H13.0879L12.0703 15.2776H12.0244L11 16.9602H9.56934V16.7532L11.2979 14.1223L9.75293 11.8118V11.6057H11.1523L12.0244 12.9973H12.0635L14.8613 8.25024L14.7354 8.27563C14.4117 8.34054 14.0962 8.13049 14.0312 7.80688C13.9669 7.48364 14.1768 7.16968 14.5 7.10474L15.9824 6.80688L16.083 6.79517Z" fill="#FFEA94"/>
<path d="M12.9662 11.0057C13.0393 11.0364 13.1314 11.0533 13.1947 11.1025C13.2972 11.1822 13.289 11.348 13.1416 11.3612C13.0286 11.3712 12.7833 11.373 12.6721 11.3608C12.5374 11.3462 12.5243 11.2211 12.5271 11.1126C12.5317 10.9326 12.5532 10.7284 12.5666 10.5463C12.5732 10.4557 12.5888 10.3649 12.5944 10.2742C12.5405 10.2479 12.1189 10.1426 12.0981 10.1575C12.0645 10.2528 12.0229 10.3455 11.9813 10.4374C11.8043 10.8275 11.6281 11.2182 11.4435 11.6047V11.6206C11.5225 11.7319 11.5671 12.0338 11.3522 11.9964C11.2711 11.9823 11.116 11.8037 11.065 11.7345C11.0471 11.7101 11.0155 11.6713 11.0181 11.6411C11.1014 11.3649 11.1898 11.09 11.266 10.8116C11.4217 10.2424 11.5098 9.65419 11.7218 9.10199L11.6357 9.16873C11.4499 9.34055 11.2969 9.54156 11.131 9.73179C11.1541 9.81892 11.1639 9.89251 11.1253 9.97736C11.0486 10.1457 10.7726 10.1082 10.7305 9.93816C10.7021 9.82325 10.7678 9.73644 10.821 9.63971C10.9868 9.33811 11.3424 8.78937 11.6285 8.61071C11.9636 8.40143 12.2009 8.51028 12.5537 8.47919C12.9472 8.44448 13.2012 8.05252 13.4097 7.75864C13.5226 7.59933 13.6406 7.38006 13.7598 7.23737C13.7954 7.19479 13.8286 7.1711 13.8798 7.20966C13.9764 7.28231 13.8274 7.41249 13.8033 7.49135C13.8726 7.56407 13.9783 7.65585 13.9446 7.76973C13.9266 7.83073 13.819 7.96768 13.7771 8.02624C13.5478 8.34775 13.2977 8.66895 12.9582 8.87846C12.8929 9.16747 12.819 9.45499 12.7248 9.73573C12.8367 9.8201 13.143 9.88267 13.1666 10.0447C13.1991 10.2677 13.0058 10.6937 12.9688 10.9355C12.9652 10.959 12.9627 10.9822 12.9662 11.0059V11.0057Z" fill="#FFEA94"/>
<path d="M12.4552 7.25488C12.7318 7.23371 13.0037 7.44542 13.0276 7.72877C13.0727 8.26255 12.4096 8.5274 12.0783 8.11742C11.8055 7.77992 12.0295 7.28738 12.4553 7.2548L12.4552 7.25488Z" fill="#FFEA94"/>
<path d="M14.6349 6.51735C14.3952 6.5676 14.2078 6.75495 14.1576 6.99466C14.1514 7.02409 14.1255 7.04517 14.0954 7.04517C14.0653 7.04517 14.0394 7.02409 14.0332 6.99466C13.9829 6.75495 13.7956 6.5676 13.5559 6.51736C13.5265 6.51119 13.5054 6.48523 13.5054 6.45516C13.5054 6.42509 13.5265 6.39914 13.5559 6.39297C13.7956 6.34272 13.9829 6.15537 14.0332 5.91566C14.0393 5.88623 14.0653 5.86515 14.0954 5.86515C14.1254 5.86515 14.1514 5.88623 14.1576 5.91566C14.2078 6.15537 14.3952 6.34272 14.6349 6.39296C14.6643 6.39912 14.6854 6.42508 14.6854 6.45515C14.6854 6.48522 14.6643 6.51118 14.6349 6.51735Z" fill="#FFEA94"/>
<path d="M14.7277 5.70653C14.6148 5.7302 14.5265 5.81848 14.5028 5.93142C14.4967 5.96085 14.4707 5.98193 14.4406 5.98193C14.4106 5.98193 14.3846 5.96086 14.3784 5.93142C14.3548 5.81848 14.2665 5.73021 14.1535 5.70654C14.1241 5.70037 14.103 5.67441 14.103 5.64434C14.103 5.61427 14.1241 5.58831 14.1535 5.58215C14.2665 5.55847 14.3547 5.47019 14.3784 5.35725C14.3846 5.32782 14.4105 5.30674 14.4406 5.30674C14.4707 5.30674 14.4966 5.32782 14.5028 5.35725C14.5265 5.47019 14.6148 5.55847 14.7277 5.58214C14.7571 5.58831 14.7782 5.61427 14.7782 5.64434C14.7782 5.67441 14.7571 5.70036 14.7277 5.70653Z" fill="#FFEA94"/>
<path d="M15.3639 6.1443C15.2112 6.1763 15.0919 6.29562 15.0599 6.44827C15.0538 6.4777 15.0278 6.49878 14.9977 6.49878C14.9677 6.49878 14.9417 6.4777 14.9355 6.44827C14.9035 6.29562 14.7842 6.1763 14.6316 6.14431C14.6021 6.13814 14.5811 6.11218 14.5811 6.08211C14.5811 6.05204 14.6021 6.02609 14.6316 6.01991C14.7842 5.98791 14.9035 5.8686 14.9355 5.71595C14.9417 5.68652 14.9676 5.66543 14.9977 5.66543C15.0278 5.66543 15.0538 5.68651 15.0599 5.71595C15.0919 5.8686 15.2112 5.98791 15.3639 6.01991C15.3933 6.02608 15.4144 6.05203 15.4144 6.0821C15.4144 6.11217 15.3933 6.13813 15.3639 6.1443Z" fill="#FFEA94"/>
</g>
<defs>
<clipPath id="clip0_237_12955">
<rect width="24" height="24" fill="white"/>
</clipPath>
<clipPath id="clip1_237_12955">
<rect width="24" height="24" fill="white"/>
</clipPath>
</defs>
</svg>
