<svg width="42" height="42" viewBox="0 0 42 42" fill="none" xmlns="http://www.w3.org/2000/svg">
<rect width="42" height="42" rx="21" fill="#65A9E7"/>
<path d="M18.5632 16.3952C18.5632 15.9465 18.1994 15.5827 17.7507 15.5827H16.4679H14.824C15.2221 12.5263 17.8357 10.166 21.0007 10.166C24.1656 10.166 26.7792 12.5263 27.1773 15.5827H25.5334L22.6257 15.5827C22.1769 15.5827 21.8132 15.9465 21.8132 16.3952C21.8132 16.8439 22.1769 17.2077 22.6257 17.2077L25.6048 17.2077H27.2298V18.8327H25.6048H22.6257C22.1769 18.8327 21.8132 19.1965 21.8132 19.6452C21.8132 20.0939 22.1769 20.4577 22.6257 20.4577H25.5334H27.1773C26.7792 23.5141 24.1656 25.8743 21.0007 25.8743C17.8357 25.8743 15.2221 23.5141 14.824 20.4577H16.4679H17.7507C18.1994 20.4577 18.5632 20.0939 18.5632 19.6452C18.5632 19.1965 18.1994 18.8327 17.7507 18.8327H16.3965H14.7715V17.2077H16.3965H17.7507C18.1994 17.2077 18.5632 16.8439 18.5632 16.3952Z" fill="white"/>
<path fill-rule="evenodd" clip-rule="evenodd" d="M12.334 17.7493C12.7827 17.7493 13.1465 18.1131 13.1465 18.5618V19.6452C13.1465 23.9829 16.6629 27.4993 21.0007 27.4993C25.3384 27.4993 28.8548 23.9829 28.8548 19.6452V18.5618C28.8548 18.1131 29.2186 17.7493 29.6673 17.7493C30.116 17.7493 30.4798 18.1131 30.4798 18.5618V19.6452C30.4798 24.6067 26.668 28.6779 21.8132 29.09V31.5618C21.8132 32.0106 21.4494 32.3743 21.0007 32.3743C20.5519 32.3743 20.1882 32.0106 20.1882 31.5618V29.09C15.3333 28.6779 11.5215 24.6067 11.5215 19.6452V18.5618C11.5215 18.1131 11.8853 17.7493 12.334 17.7493Z" fill="white"/>
</svg>
