<svg width="52" height="56" viewBox="0 0 52 56" fill="none" xmlns="http://www.w3.org/2000/svg">
<path d="M15.9006 30.5298C15.9006 32.4218 15.9006 34.3867 15.9006 36.3515C12.1165 36.3515 10.2244 36.3515 6.47667 36.3515V39.9537H15.1365C15.1365 41.8821 15.1365 43.8106 15.1365 45.739H6.47667C6.47667 47.2309 6.47667 48.6863 6.47667 50.2145C10.2244 50.2145 12.4076 50.2145 16.2281 50.2145C16.2281 52.1066 16.2281 54.0714 16.2281 55.9998C10.2608 55.9998 5.8945 55.9998 0 55.9998C0 47.4856 0 38.9713 0 30.5298C5.8945 30.5298 9.93332 30.5298 15.9006 30.5298Z" fill="#01004F"/>
<path d="M37.4979 55.9998C35.3148 55.9998 33.1316 55.9998 30.9849 55.9998C30.9849 47.5219 30.9849 39.0441 30.9849 30.5298C34.6598 30.5298 38.4439 30.5298 42.1917 30.5298C54.3809 30.5662 54.3809 49.4868 42.1917 49.4868H37.4979V55.9998ZM42.1553 43.6287C45.7211 43.6287 45.9394 36.3879 42.1553 36.3515C40.6271 36.3151 38.9897 36.3515 37.4979 36.3515C37.4979 38.4255 37.4979 41.5547 37.4979 43.6287H42.1553Z" fill="#01004F"/>
<path d="M41.3 7.6665C42.4907 7.53072 43.652 8.15978 44.1809 9.25439L47.3098 15.731C47.9925 17.1444 47.4 18.8439 45.9866 19.5269C44.5731 20.2095 42.8736 19.617 42.1907 18.2036L41.4963 16.7661L25.8772 42.5005L34.137 55.0171V55.9995H27.2961L22.4573 47.9946H22.2385L17.3625 55.9995H10.5588V55.0171L18.7825 42.5005L11.4319 31.5122V30.5298H18.0911L22.2385 37.1519H22.4202L35.7307 14.5708L35.1272 14.6929C33.5881 15.0013 32.0902 14.0035 31.7815 12.4644C31.4728 10.9251 32.4708 9.4274 34.01 9.11865L41.0627 7.70361L41.3 7.6665Z" fill="#EAAD20"/>
<path d="M26.7149 27.6766C27.0628 27.8226 27.5006 27.9027 27.8016 28.1367C28.2893 28.5159 28.2502 29.3048 27.5494 29.3673C27.0118 29.4152 25.8448 29.4235 25.3158 29.3658C24.6752 29.2962 24.6127 28.7013 24.6261 28.185C24.648 27.3288 24.7503 26.3573 24.8139 25.4913C24.8456 25.0604 24.9196 24.6284 24.9464 24.1971C24.6901 24.0717 22.6845 23.5711 22.5856 23.6419C22.4256 24.0952 22.2281 24.5359 22.0298 24.9732C21.1879 26.829 20.3498 28.6874 19.4718 30.5256V30.6013C19.8476 31.131 20.06 32.5668 19.0373 32.3889C18.6515 32.3219 17.9138 31.4724 17.6713 31.143C17.5861 31.0269 17.4362 30.8424 17.4484 30.699C17.8446 29.3849 18.265 28.0775 18.6274 26.753C19.368 24.0454 19.7873 21.2477 20.7955 18.621L20.3859 18.9385C19.5023 19.7558 18.7747 20.7119 17.9853 21.6168C18.095 22.0313 18.1419 22.3813 17.9581 22.7849C17.5935 23.5857 16.2803 23.4075 16.0802 22.5985C15.9451 22.0519 16.2576 21.6389 16.5106 21.1788C17.2996 19.7442 18.9908 17.134 20.352 16.2841C21.9457 15.2886 23.0744 15.8064 24.7526 15.6585C26.6245 15.4934 27.8328 13.629 28.8243 12.2311C29.3614 11.4733 29.9228 10.4303 30.4898 9.75152C30.659 9.54898 30.8171 9.43629 31.0608 9.61974C31.5202 9.9653 30.8112 10.5845 30.6966 10.9597C31.0262 11.3056 31.5292 11.7421 31.3688 12.2838C31.2833 12.574 30.7714 13.2254 30.5723 13.504C29.4812 15.0333 28.2919 16.5612 26.6766 17.5578C26.366 18.9325 26.0148 20.3001 25.5665 21.6355C26.0989 22.0369 27.5557 22.3345 27.668 23.105C27.8228 24.166 26.9032 26.1925 26.7272 27.3426C26.7101 27.4542 26.6982 27.5646 26.7149 27.6773V27.6766Z" fill="#01004F"/>
<path d="M24.285 9.83384C25.6008 9.73314 26.8939 10.7402 27.0078 12.088C27.2221 14.6271 24.0681 15.8869 22.4923 13.9367C21.1947 12.3314 22.2601 9.98846 24.2854 9.83347L24.285 9.83384Z" fill="#01004F"/>
<path d="M34.6521 6.32647C33.5119 6.5655 32.6207 7.4567 32.3817 8.59692C32.3523 8.73689 32.2289 8.83716 32.0858 8.83716C31.9428 8.83716 31.8193 8.73689 31.79 8.5969C31.551 7.4567 30.6598 6.56552 29.5196 6.32653C29.3796 6.29719 29.2793 6.17372 29.2793 6.03068C29.2793 5.88764 29.3796 5.76417 29.5196 5.73483C30.6598 5.49581 31.5509 4.60463 31.7899 3.46443C31.8193 3.32444 31.9427 3.22415 32.0858 3.22415C32.2288 3.22415 32.3523 3.32442 32.3816 3.46443C32.6206 4.60463 33.5119 5.49581 34.6521 5.73478C34.7921 5.76412 34.8923 5.88757 34.8923 6.03063C34.8923 6.17366 34.7921 6.29714 34.6521 6.32647Z" fill="url(#paint0_linear_237_12731)"/>
<path d="M35.0935 2.47002C34.5563 2.58262 34.1364 3.00251 34.0238 3.53975C33.9945 3.67974 33.871 3.78003 33.7279 3.78003C33.5849 3.78003 33.4614 3.67978 33.4321 3.53977C33.3195 3.00255 32.8996 2.58266 32.3623 2.47004C32.2224 2.4407 32.1221 2.31723 32.1221 2.17419C32.1221 2.03116 32.2223 1.90769 32.3623 1.87835C32.8995 1.76573 33.3194 1.34582 33.4321 0.808599C33.4614 0.668612 33.5848 0.568324 33.7279 0.568324C33.8709 0.568324 33.9944 0.668575 34.0238 0.808599C34.1364 1.34582 34.5563 1.76571 35.0935 1.87833C35.2335 1.90767 35.3338 2.03114 35.3338 2.17418C35.3338 2.31721 35.2335 2.44067 35.0935 2.47002Z" fill="url(#paint1_linear_237_12731)"/>
<path d="M38.1195 4.55162C37.3934 4.70384 36.8258 5.2714 36.6736 5.99752C36.6443 6.13751 36.5208 6.23779 36.3778 6.23779C36.2347 6.23779 36.1113 6.13754 36.0819 5.99754C35.9297 5.2714 35.3622 4.70386 34.636 4.55166C34.496 4.52232 34.3958 4.39885 34.3958 4.25581C34.3958 4.11277 34.496 3.98932 34.636 3.95996C35.3621 3.80774 35.9297 3.2402 36.0819 2.51407C36.1112 2.37408 36.2347 2.27379 36.3777 2.27379C36.5208 2.27379 36.6442 2.37404 36.6736 2.51407C36.8258 3.2402 37.3934 3.80774 38.1195 3.95993C38.2595 3.98928 38.3598 4.11274 38.3598 4.25577C38.3598 4.39881 38.2595 4.52228 38.1195 4.55162Z" fill="url(#paint2_linear_237_12731)"/>
<defs>
<linearGradient id="paint0_linear_237_12731" x1="32.0858" y1="3.22415" x2="32.0858" y2="8.83716" gradientUnits="userSpaceOnUse">
<stop stop-color="#EAAD20"/>
<stop offset="1" stop-color="#FFF28D"/>
</linearGradient>
<linearGradient id="paint1_linear_237_12731" x1="33.7279" y1="0.568324" x2="33.7279" y2="3.78003" gradientUnits="userSpaceOnUse">
<stop stop-color="#EAAD20"/>
<stop offset="1" stop-color="#FFF28D"/>
</linearGradient>
<linearGradient id="paint2_linear_237_12731" x1="38.3598" y1="4.25579" x2="34.3958" y2="4.25579" gradientUnits="userSpaceOnUse">
<stop stop-color="#EAAD20"/>
<stop offset="1" stop-color="#FFF28D"/>
</linearGradient>
</defs>
</svg>
